# xmcd CD database file
#
# Track frame offsets:
#	150
#	2100
#	3975
#	5925
#	7875
#	9825
#	11775
#	26100
#	39525
#	53250
#	61725
#	69900
#	79425
#	93975
#	107550
#	120150
#	132300
#	143250
#	154275
#	165375
#	175800
#	185700
#	196650
#	210825
#	225075
#	244425
#	256425
#	270675
#	284325
#	292800
#	300900
#
# Disc length: 4136 seconds
#
# Revision: 0
# Processed by: cddbd v1.5.2PL0 Copyright (c) Steve Scherf et al.
# Submitted via: CDex 1.70beta3
#
DISCID=7d10261f
DTITLE=道下和彦 - ギター無窮動トレーニング
DYEAR=2014
DGENRE=Lesson
TTITLE0=コート゛・トーンを使ったウォーミンク゛・アッフ゜・エクササイス゛1
TTITLE1=コート゛・トーンを使ったウォーミンク゛・アッフ゜・エクササイス゛2
TTITLE2=スケールを使ったウォーミンク゛・アッフ゜・エクササイス゛1
TTITLE3=スケールを使ったウォーミンク゛・アッフ゜・エクササイス゛2
TTITLE4=アフ゜ローチ・ノートを使ったウォーミンク゛・アッフ゜・エクササイス゛1
TTITLE5=アフ゜ローチ・ノートを使ったウォーミンク゛・アッフ゜・エクササイス゛2
TTITLE6=1625 in C その1
TTITLE7=1625 in C その2
TTITLE8=2536(逆循環) in C
TTITLE9=44?36251 in C
TTITLE10=メシ゛ャー・ターンアラウント゛ in C
TTITLE11=マイナー・ターンアラウント゛ in Cm
TTITLE12=フ゛ルース in C
TTITLE13=フ゛ルース in F
TTITLE14=フ゛ルース in B♭
TTITLE15=フ゛ルース in Cm
TTITLE16=リス゛ム・チェンシ
TTITLE17=リス゛ム・チェンシ゛:ハ゛リエーション
TTITLE18=定番ヒ゛ハ゛ッフ゜進行1
TTITLE19=定番ヒ゛ハ゛ッフ゜進行2
TTITLE20=定番ヒ゛ハ゛ッフ゜進行3
TTITLE21=定番スタンタ゛ート゛進行1
TTITLE22=定番スタンタ゛ート゛進行2
TTITLE23=定番スタンタ゛ート゛進行3
TTITLE24=定番スタンタ゛ート゛進行4
TTITLE25=定番スタンタ゛ート゛進行5
TTITLE26=1625 in C その1&その2練習用カラオケ
TTITLE27=2536(逆循環) in C練習用カラオケ
TTITLE28=44?36251 in C練習用カラオケ
TTITLE29=メシ゛ャー・ターンアラウント゛ in C練習用カラオケ
TTITLE30=マイナー・ターンアラウント゛ in Cm練習用カラオケ
EXTD=YEAR: 2014
EXTT0=
EXTT1=
EXTT2=
EXTT3=
EXTT4=
EXTT5=
EXTT6=
EXTT7=
EXTT8=
EXTT9=
EXTT10=
EXTT11=
EXTT12=
EXTT13=
EXTT14=
EXTT15=
EXTT16=
EXTT17=
EXTT18=
EXTT19=
EXTT20=
EXTT21=
EXTT22=
EXTT23=
EXTT24=
EXTT25=
EXTT26=
EXTT27=
EXTT28=
EXTT29=
EXTT30=
PLAYORDER=
